# xmcd
#
# Track frame offsets:
#	150
#	22097
#	38320
#	54697
#	70875
#	87770
#	104542
#	122642
#	139645
#	154540
#	177887
#	196567
#	214967
#	233782
#	250725
#
# Disc length: 3539 seconds
#
# Revision: 1
# Processed by: cddbd v1.5.2PL0 Copyright (c) Steve Scherf et al.
# Submitted via: audiograbber 1.83.01
#
DISCID=c10dd10f
DTITLE=Various Artist - Boys Unlimited
DYEAR=1995
DGENRE=Pop
TTITLE0=Take That - Babe
TTITLE1=Worlds Apart - Everlasting Love
TTITLE2=Boyzone - Love Me For A Reason
TTITLE3=Bed and Breakfast - You Made Me Believe In Magic
TTITLE4=Richard Grieco - Waiting For The Sky to Fall
TTITLE5=Prince Ital. Joe feat. Marky Mark - Life In The Streets
TTITLE6=PJ and Duncan aka - Eternal Love
TTITLE7=Fabian Harloff - Glory And Fame
TTITLE8=Shake the stick - Give You Up
TTITLE9=Jodeci - Feenin
TTITLE10=Jeremy Jackson - French Kiss
TTITLE11=Oder Alex - Mach dein Hemd auf!
TTITLE12=I've never been in love before - I've never been in love before
TTITLE13=Andreas Elsholz - Weil ich Dich liebe
TTITLE14=Just Friends - Ever And Ever
EXTD=
EXTT0=
EXTT1=
EXTT2=
EXTT3=
EXTT4=
EXTT5=
EXTT6=
EXTT7=
EXTT8=
EXTT9=
EXTT10=
EXTT11=
EXTT12=
EXTT13=
EXTT14=
PLAYORDER=
